# Wavefront OBJ file automatically generated by Tiled2Unity

# Vertices (Count = 75)
v -2880 -960 0
v -3200 -960 0
v -3200 -640 0
v -2880 -640 0
v -3520 -960 0
v -3520 -640 0
v -4480 -960 0
v -4800 -960 0
v -4800 -640 0
v -4480 -640 0
v -5120 -960 0
v -5120 -640 0
v -5440 -960 0
v -5440 -640 0
v -5760 -960 0
v -5760 -640 0
v -1600 -1280 0
v -1920 -1280 0
v -1920 -960 0
v -1600 -960 0
v -2240 -1280 0
v -2240 -960 0
v -640 -1600 0
v -960 -1600 0
v -960 -1280 0
v -640 -1280 0
v -1280 -1600 0
v -1280 -1280 0
v -1280 -1920 0
v -1600 -1920 0
v -1600 -1600 0
v -1920 -1920 0
v -1920 -1600 0
v -2240 -1920 0
v -2240 -1600 0
v -2560 -1920 0
v -2560 -1600 0
v -2880 -2240 0
v -3200 -2240 0
v -3200 -1920 0
v -2880 -1920 0
v -3520 -2240 0
v -3520 -1920 0
v -3840 -2560 0
v -4160 -2560 0
v -4160 -2240 0
v -3840 -2240 0
v -4480 -2560 0
v -4480 -2240 0
v -4800 -2560 0
v -4800 -2240 0
v -5120 -2560 0
v -5120 -2240 0
v -5440 -2560 0
v -5440 -2240 0
v -320 -2880 0
v -640 -2880 0
v -640 -2560 0
v -320 -2560 0
v -960 -2880 0
v -960 -2560 0
v -1280 -2880 0
v -1280 -2560 0
v -1600 -2880 0
v -1600 -2560 0
v -1920 -2880 0
v -1920 -2560 0
v -2240 -2880 0
v -2240 -2560 0
v -2560 -2880 0
v -2560 -2560 0
v -2880 -2880 0
v -2880 -2560 0
v -3200 -2880 0
v -3200 -2560 0

# Texture Coorindates (Count = 12)
vt 0.0001220703 0.0001220703
vt 0.3333333 0.0001220703
vt 0.3333333 1
vt 0.0001220703 1
vt 0.6667888 0.0001220703
vt 1 0.0001220703
vt 1 1
vt 0.6667888 1
vt 0.3334554 0.0001220703
vt 0.6666667 0.0001220703
vt 0.6666667 1
vt 0.3334554 1

# Normal
vn 0 0 -1

# Groups (Count = 1)
g mesh_[00]_[00]
f  1/1/1  2/2/1  3/3/1  4/4/1 
f  2/5/1  5/6/1  6/7/1  3/8/1 
f  7/1/1  8/2/1  9/3/1  10/4/1 
f  8/9/1  11/10/1  12/11/1  9/12/1 
f  11/9/1  13/10/1  14/11/1  12/12/1 
f  13/5/1  15/6/1  16/7/1  14/8/1 
f  17/1/1  18/2/1  19/3/1  20/4/1 
f  18/5/1  21/6/1  22/7/1  19/8/1 
f  23/1/1  24/2/1  25/3/1  26/4/1 
f  24/5/1  27/6/1  28/7/1  25/8/1 
f  29/1/1  30/2/1  31/3/1  27/4/1 
f  30/9/1  32/10/1  33/11/1  31/12/1 
f  32/9/1  34/10/1  35/11/1  33/12/1 
f  34/5/1  36/6/1  37/7/1  35/8/1 
f  38/1/1  39/2/1  40/3/1  41/4/1 
f  39/5/1  42/6/1  43/7/1  40/8/1 
f  44/1/1  45/2/1  46/3/1  47/4/1 
f  45/9/1  48/10/1  49/11/1  46/12/1 
f  48/9/1  50/10/1  51/11/1  49/12/1 
f  50/9/1  52/10/1  53/11/1  51/12/1 
f  52/5/1  54/6/1  55/7/1  53/8/1 
f  56/1/1  57/2/1  58/3/1  59/4/1 
f  57/9/1  60/10/1  61/11/1  58/12/1 
f  60/9/1  62/10/1  63/11/1  61/12/1 
f  62/9/1  64/10/1  65/11/1  63/12/1 
f  64/9/1  66/10/1  67/11/1  65/12/1 
f  66/9/1  68/10/1  69/11/1  67/12/1 
f  68/9/1  70/10/1  71/11/1  69/12/1 
f  70/9/1  72/10/1  73/11/1  71/12/1 
f  72/5/1  74/6/1  75/7/1  73/8/1 
